<svg viewBox="0 0 24 24" fill="none" xmlns="http://www.w3.org/2000/svg">
<path d="M17.3 1.55005C15.05 1.55005 13.35 2.45005 12 4.35005C10.65 2.50005 8.95 1.60005 6.7 1.60005C3 1.55005 0 4.80005 0 8.80005C0 12.45 2.7 14.8 5.3 17.05C5.6 17.3 5.95 17.6 6.25 17.9L7.4 18.9C9.6 20.85 10.7 21.85 11.2 22.15C11.45 22.3 11.75 22.4 12 22.4C12.25 22.4 12.55 22.3 12.8 22.15C13.3 21.85 14.2 21.05 16.7 18.75L17.7 17.85C18.05 17.5501 18.35 17.25 18.7 17C21.35 14.8 24 12.5 24 8.80005C24 4.80005 21 1.55005 17.3 1.55005Z" fill="currentColor"/>
</svg>
