<svg viewBox="0 0 80 80" fill="none" xmlns="http://www.w3.org/2000/svg">
<path d="M40.3402 17.3609C25.2474 17.3609 13 29.6083 13 44.7011C13 51.0104 15.2268 56.8249 18.8144 61.5258C19.0619 61.8969 19.433 62.2681 19.6804 62.5155C20.0515 63.0104 20.5464 63.5053 21.0412 64C26.2371 69.567 32.9175 73.7732 40.3402 76.0001C47.7629 73.7732 54.4434 69.567 59.6391 64C60.134 63.5053 60.505 63.0104 60.9999 62.5155C61.2473 62.1444 61.6185 61.7732 61.8659 61.5258C65.4536 56.9485 67.6804 51.134 67.6804 44.7011C67.6804 29.6083 55.433 17.3609 40.3402 17.3609Z" fill="url(#logo-radial-gradient)"/>
<path d="M49.2473 16.7423C51.1028 16.3711 52.4637 14.7629 52.4637 12.7835C52.4637 10.5567 50.6081 8.82473 48.505 8.82473C47.8864 8.82473 47.2678 8.94845 46.7731 9.19586C46.0308 6.2268 43.4328 4 40.34 4C37.2472 4 34.6494 6.2268 34.0307 9.19586C33.5359 8.94845 32.9173 8.82473 32.2988 8.82473C30.072 8.82473 28.34 10.6804 28.34 12.7835C28.34 14.7629 29.7008 16.3711 31.5565 16.7423C34.4019 15.7526 37.3709 15.2577 40.4637 15.2577C43.5564 15.2577 46.4018 15.7526 49.2473 16.7423Z" fill="#4CAF50"/>
<defs>
<radialGradient id="logo-radial-gradient" cx="0" cy="0" r="1" gradientUnits="userSpaceOnUse" gradientTransform="translate(40.3402 -1) rotate(90) scale(77.0001 71.8018)">
<stop stop-color="#4CAF50"/>
<stop offset="0.485974" stop-color="#FAFAF5"/>
</radialGradient>
</defs>
</svg>
